<?xml version="1.0" standalone="no"?>
<!DOCTYPE svg PUBLIC "-//W3C//DTD SVG 20010904//EN"
 "http://www.w3.org/TR/2001/REC-SVG-20010904/DTD/svg10.dtd">
<svg version="1.0" xmlns="http://www.w3.org/2000/svg"
 width="4961.000000pt" height="3508.000000pt" viewBox="0 0 4961.000000 3508.000000"
 preserveAspectRatio="xMidYMid meet">

<g transform="translate(0.000000,3508.000000) scale(0.100000,-0.100000)"
fill="#000000" stroke="none">
<path d="M27070 29053 c-45 -7 -124 -35 -182 -64 -78 -39 -162 -121 -275 -266
-52 -67 -99 -123 -104 -123 -4 0 -92 14 -196 31 -366 59 -596 74 -779 48 -244
-34 -461 -142 -654 -326 -55 -52 -383 -435 -828 -967 -405 -485 -779 -926
-830 -980 -197 -209 -309 -359 -400 -538 -108 -211 -152 -386 -153 -603 -1
-179 33 -332 109 -487 l29 -58 -41 0 c-23 0 -896 25 -1940 55 -1044 30 -1902
52 -1906 50 -3 -2 -158 -38 -343 -79 -186 -42 -349 -82 -363 -89 -22 -11 -33
-11 -77 4 -252 85 -616 74 -879 -24 -147 -56 -249 -120 -362 -227 -88 -84
-148 -163 -196 -260 -47 -94 -2583 -4241 -2646 -4327 -119 -161 -174 -329
-174 -529 0 -221 75 -468 218 -717 l51 -88 -102 -102 c-108 -108 -200 -244
-213 -316 -4 -20 16 -637 45 -1371 l52 -1335 29 -87 c62 -185 152 -329 280
-451 99 -94 201 -153 325 -189 67 -19 102 -23 215 -22 116 1 148 5 225 28 298
89 569 309 795 646 62 92 180 302 180 319 0 18 10 13 57 -28 58 -52 126 -74
208 -69 44 3 61 1 56 -7 -56 -70 -2041 -2617 -2054 -2635 -23 -32 -22 -91 2
-121 10 -13 77 -64 149 -114 72 -49 131 -93 132 -97 0 -4 -57 -76 -127 -160
-71 -84 -140 -168 -154 -187 l-27 -34 -46 22 c-40 20 -50 21 -81 11 -30 -10
-47 -29 -108 -123 -339 -527 -737 -1070 -1146 -1561 -217 -261 -224 -271 -217
-314 7 -45 17 -56 108 -116 l76 -52 -73 -199 c-90 -247 -180 -473 -232 -585
-22 -47 -78 -170 -124 -275 -74 -169 -498 -1024 -578 -1165 -17 -30 -31 -66
-31 -80 0 -28 34 -90 50 -90 5 0 10 -6 10 -13 0 -7 -288 -548 -640 -1202 -352
-654 -640 -1200 -640 -1213 0 -31 26 -79 49 -92 57 -30 57 -30 939 476 466
268 856 496 868 508 11 13 78 190 158 424 76 221 141 402 143 402 3 0 24 -15
47 -34 55 -46 87 -57 127 -46 47 14 65 35 117 135 184 356 777 1070 1421 1710
l150 149 83 -56 c144 -98 157 -97 260 11 105 110 225 269 575 766 342 486 460
649 616 845 64 80 107 143 109 160 6 40 -14 84 -51 111 -18 13 -29 29 -27 36
5 12 319 448 336 466 4 5 58 -25 118 -67 61 -42 124 -81 140 -87 67 -23 61
-30 596 692 275 371 506 682 515 691 15 16 50 -24 508 -585 270 -331 520 -638
554 -682 96 -122 273 -299 381 -380 233 -176 458 -256 686 -242 245 14 435
143 557 377 132 256 148 583 55 1119 -11 63 -17 117 -15 119 7 7 250 -106 506
-234 422 -213 602 -336 949 -653 289 -264 497 -384 737 -426 109 -19 165 -19
261 1 300 61 510 317 578 704 35 199 16 531 -43 740 -105 379 -342 681 -715
912 -212 131 -392 217 -813 388 l-230 93 -249 304 c-136 167 -246 306 -244
309 3 2 598 322 1324 709 725 388 1329 715 1341 727 19 17 49 25 145 39 l122
16 271 -94 c1154 -404 3020 -1004 4148 -1332 122 -36 254 -82 320 -112 140
-64 366 -140 518 -173 64 -14 123 -26 130 -26 47 -1 43 -10 -302 -736 -188
-395 -355 -752 -371 -792 -203 -505 -37 -1138 414 -1579 168 -164 395 -301
568 -342 111 -26 331 -44 445 -36 176 12 504 68 586 100 9 3 19 0 22 -7 3 -7
77 -188 166 -402 89 -214 161 -395 161 -401 0 -6 -25 -49 -55 -95 -278 -423
-346 -957 -199 -1569 68 -285 436 -858 908 -1416 188 -222 362 -411 615 -667
l244 -247 78 61 c44 33 79 63 79 65 0 3 -98 106 -219 228 -681 695 -1139 1279
-1412 1801 -38 72 -69 134 -69 138 0 8 2325 1556 2337 1556 5 0 21 -24 35 -52
119 -241 640 -750 1454 -1420 l80 -66 62 78 c34 43 62 80 62 83 0 4 -330 285
-434 369 -11 10 25 -2 81 -27 119 -52 304 -114 417 -141 l79 -18 26 31 c14 17
45 58 68 91 l42 59 -117 28 c-1053 248 -1761 1096 -1918 2295 -25 190 -29 567
-9 750 53 491 183 896 401 1256 294 485 720 809 1234 939 182 46 299 59 530
59 316 0 539 -37 835 -135 410 -137 856 -431 1125 -742 36 -42 68 -76 71 -76
4 -1 21 52 39 116 l32 118 -114 111 c-184 178 -398 340 -616 463 -269 153
-645 281 -946 323 -54 8 -89 19 -107 33 -14 11 -190 99 -392 194 -202 96 -367
178 -367 182 0 27 458 270 630 335 41 15 87 36 101 46 32 22 53 69 45 102 -7
28 -152 249 -246 376 -170 229 -337 396 -550 547 -186 132 -546 333 -596 333
-16 0 -54 -7 -84 -15 -80 -23 -254 -30 -345 -16 -149 24 -287 84 -440 192 -87
61 -348 311 -428 411 l-38 46 18 94 c25 136 25 515 0 648 -68 350 -237 695
-520 1058 -62 80 -578 596 -2165 2164 -1145 1132 -2088 2058 -2095 2058 -7 0
-29 16 -48 36 -44 47 -203 166 -300 227 l-77 48 -7 75 c-29 310 -166 600 -399
842 -188 195 -406 335 -684 440 l-101 39 470 634 c326 438 480 637 498 645 37
16 71 61 71 94 0 20 107 171 411 580 226 305 424 577 439 604 68 121 83 291
42 451 -148 575 -893 1254 -1503 1370 -74 14 -238 18 -299 8z m321 -227 c444
-116 983 -565 1199 -1001 72 -144 94 -222 94 -335 1 -71 -4 -94 -25 -140 -20
-42 -754 -1047 -800 -1094 -5 -6 -23 7 -46 34 -104 122 -246 269 -381 393
-455 419 -934 744 -1309 887 l-112 43 32 41 c347 451 850 1085 881 1110 81 65
141 84 277 85 72 1 120 -5 190 -23z m-1386 -362 c153 -18 343 -49 351 -56 4
-5 -3004 -3874 -3056 -3932 -11 -11 -170 143 -231 224 -246 328 -259 726 -35
1125 77 138 170 258 316 410 48 50 432 502 853 1006 420 503 793 941 828 973
124 113 255 188 404 231 157 46 308 51 570 19z m-22 -1064 c298 -100 698 -349
1102 -686 196 -164 636 -609 635 -643 0 -3 -1388 -1876 -3085 -4161 -1697
-2285 -3089 -4168 -3093 -4185 -8 -30 -12 -31 -273 -108 -741 -218 -1299 -359
-2065 -521 l-400 -84 -125 -60 c-563 -272 -932 -671 -1024 -1108 -22 -103 -22
-275 0 -379 32 -156 113 -306 231 -434 235 -255 685 -423 1141 -425 139 -1
142 -1 129 -21 -7 -11 -59 -94 -116 -185 -57 -91 -113 -178 -125 -195 -64 -88
-2125 -2866 -2157 -2907 l-29 -37 -82 58 c-45 31 -104 73 -132 93 -27 19 -497
347 -1043 727 l-992 693 28 36 c57 73 5544 7107 5842 7489 4202 5389 5517
7072 5529 7072 7 1 54 -13 104 -29z m-4928 -2840 c957 -27 1774 -50 1815 -50
l75 0 109 -105 108 -105 -29 -37 c-17 -21 -376 -481 -798 -1023 -422 -542
-768 -985 -769 -985 -619 0 -2361 15 -2409 20 -67 8 -69 9 -63 34 109 501 130
1784 37 2259 l-8 42 96 0 c53 0 879 -23 1836 -50z m-2141 23 c12 -39 36 -204
47 -318 27 -297 21 -1140 -11 -1490 -13 -137 -40 -336 -49 -351 -3 -6 -65 58
-141 148 -171 202 -173 204 -166 225 3 10 41 54 84 98 131 134 208 266 254
436 33 119 33 364 0 486 -42 161 -109 301 -205 429 -46 61 -176 190 -236 235
l-34 25 204 46 c234 53 246 54 253 31z m8062 -152 c609 -236 964 -706 941
-1246 -9 -198 -60 -371 -161 -543 -68 -116 -115 -175 -246 -307 -279 -284
-561 -415 -889 -415 -356 0 -702 170 -974 478 -69 77 -187 244 -187 264 0 5
309 426 687 935 l686 925 21 -26 c13 -17 58 -40 122 -65z m-8946 45 c369 -103
641 -395 711 -764 19 -100 7 -281 -24 -373 -107 -316 -391 -513 -842 -585
-119 -20 -317 -14 -410 11 -86 24 -230 94 -302 149 -237 179 -376 492 -360
809 15 307 171 546 443 681 157 77 310 107 529 102 134 -4 175 -8 255 -30z
m-1390 -1139 c101 -333 340 -606 641 -728 134 -55 236 -73 409 -73 179 -1 367
29 511 79 l41 15 -14 -23 c-8 -12 -493 -787 -1079 -1721 l-1064 -1699 -7 119
c-14 269 -98 466 -267 632 -83 81 -156 131 -274 187 -172 83 -327 115 -550
115 -168 0 -264 -16 -459 -76 -12 -4 1522 2522 2020 3326 l46 75 12 -78 c7
-43 22 -110 34 -150z m11974 -716 c83 -82 999 -986 2036 -2009 1037 -1024
1918 -1901 1958 -1949 41 -48 104 -131 142 -183 387 -542 487 -1013 340 -1600
-35 -141 -92 -309 -167 -498 l-57 -143 -376 -392 c-795 -828 -1289 -1255
-1809 -1565 -110 -66 -163 -77 -411 -88 -174 -8 -255 0 -462 46 -178 39 -254
63 -376 121 -444 209 -828 631 -1132 1244 -122 246 -243 535 -227 540 7 2 57
6 112 9 55 3 132 10 170 16 39 5 129 16 201 25 718 81 1235 590 1376 1355 18
97 21 153 21 355 0 218 -2 253 -26 375 -31 159 -74 307 -123 428 -213 515
-608 879 -1089 1002 -165 43 -252 53 -450 54 -176 0 -183 -1 -290 -33 -134
-40 -276 -96 -393 -155 -48 -24 -104 -49 -124 -55 -20 -7 -110 -52 -200 -101
-90 -49 -168 -90 -175 -90 -13 0 -106 128 -187 260 -155 251 -388 699 -636
1226 -209 443 -553 1214 -545 1222 2 3 21 -9 43 -26 61 -49 201 -132 287 -172
354 -164 747 -172 1090 -23 207 90 338 185 590 432 252 247 411 379 555 459
46 26 140 59 174 61 5 1 77 -66 160 -148z m-9968 -236 c93 -110 183 -217 199
-237 16 -21 47 -45 68 -53 71 -29 338 -36 1415 -42 629 -3 1072 -9 1072 -14 0
-5 -10 -13 -22 -18 -30 -12 -482 -53 -1287 -116 -425 -33 -437 -35 -491 -62
l-55 -28 -350 -7 c-192 -4 -373 -11 -402 -17 -135 -26 -318 -90 -413 -144 -65
-37 -186 -153 -227 -219 -16 -26 -51 -63 -76 -82 -38 -29 -569 -443 -731 -570
l-39 -30 34 54 c19 30 280 446 579 923 299 477 546 866 550 865 4 -2 83 -93
176 -203z m2547 -607 c-18 -24 -1186 -1523 -1188 -1526 -5 -5 -85 38 -85 45 0
4 11 34 24 67 113 282 111 882 -4 1226 -15 47 -26 87 -24 89 2 2 196 19 431
38 236 18 514 42 618 52 247 24 240 24 228 9z m-1474 -200 c37 -74 77 -245 86
-361 l6 -82 -24 65 c-49 133 -114 240 -212 348 -56 62 -57 62 -28 63 15 0 46
6 68 14 67 22 71 20 104 -47z m-632 7 c122 -23 232 -82 324 -174 169 -170 230
-352 200 -601 -31 -256 -115 -444 -267 -597 -225 -226 -524 -243 -856 -48
-101 59 -160 121 -209 220 -57 116 -80 216 -86 373 -10 242 41 435 155 585 64
84 141 135 279 186 174 64 323 82 460 56z m-1102 -767 c1 -162 4 -208 23 -286
44 -191 132 -355 240 -452 108 -96 300 -191 473 -234 l87 -21 -407 -292 c-223
-160 -407 -290 -408 -289 -1 1 3 20 9 42 18 58 14 237 -6 314 -76 294 -339
546 -686 658 -52 17 -121 36 -153 43 -55 12 -57 13 -40 30 13 13 864 679 867
679 1 0 1 -87 1 -192z m1795 -280 c-18 -74 -50 -158 -61 -158 -5 0 1 24 13 53
12 28 28 78 37 109 19 71 28 68 11 -4z m25 -420 c36 -18 64 -35 63 -39 -6 -14
-2682 -3438 -2685 -3436 -5 6 43 265 161 873 152 780 185 985 173 1074 -4 35
-2 39 52 81 31 24 79 65 107 91 28 27 71 58 95 71 41 21 1313 929 1406 1004
23 18 47 33 55 33 7 0 119 63 248 139 129 77 241 140 247 140 7 1 42 -13 78
-31z m-2707 -18 c339 -72 600 -265 684 -508 30 -87 32 -230 4 -312 -58 -170
-166 -306 -365 -460 -39 -30 -45 -32 -65 -20 -156 100 -292 164 -482 230 -118
41 -295 90 -324 90 -19 0 -87 113 -106 177 l-14 47 37 61 c21 33 130 208 243
388 l205 327 45 0 c25 0 87 -9 138 -20z m-1878 -86 c263 -53 466 -193 566
-390 68 -132 79 -185 78 -374 0 -143 -4 -179 -27 -271 -34 -138 -153 -449
-171 -449 -3 0 -31 12 -63 26 -213 96 -447 145 -688 146 -204 0 -375 -29 -535
-92 l-49 -19 -42 71 c-98 167 -166 343 -189 490 -14 86 -9 271 9 330 17 54
136 247 184 296 132 136 350 227 617 256 60 7 232 -4 310 -20z m13305 -474
c33 -6 96 -20 140 -31 543 -142 947 -633 1062 -1289 20 -120 28 -405 14 -525
-74 -630 -427 -1084 -966 -1243 -180 -53 -277 -66 -525 -66 -244 -1 -351 13
-534 71 -498 157 -862 571 -977 1112 -26 126 -36 374 -20 507 76 621 479 1127
1098 1378 137 55 232 86 297 97 65 10 333 3 411 -11z m-1731 -656 c-124 -189
-222 -438 -266 -671 -29 -156 -32 -477 -5 -623 43 -237 125 -455 240 -640 152
-244 400 -471 652 -595 44 -22 73 -41 65 -42 -8 -1 -132 -12 -275 -23 -873
-70 -2273 -223 -3100 -340 -77 -10 -301 -42 -499 -70 -197 -28 -360 -49 -362
-48 -1 2 13 24 33 48 89 112 155 244 194 388 30 111 37 353 15 482 -61 347
-274 686 -546 866 l-71 48 278 62 c930 207 1839 481 2669 805 305 118 728 299
944 403 41 20 78 36 82 36 4 0 -18 -39 -48 -86z m-10324 40 c241 -43 587 -173
746 -281 94 -65 97 -70 89 -155 -12 -130 -61 -400 -178 -1003 -129 -657 -150
-776 -177 -983 -18 -140 -19 -145 -61 -205 -225 -326 -514 -577 -664 -577 -85
0 -121 109 -135 410 -4 96 -11 596 -15 1110 -5 714 -10 942 -19 965 -14 33
-97 122 -165 177 l-45 36 20 44 c10 23 33 59 50 78 17 19 77 108 134 198 141
224 158 232 420 186z m-1336 -445 c258 -38 515 -154 671 -302 l55 -52 10
-1115 11 -1116 -35 -83 c-123 -286 -298 -548 -477 -715 -472 -438 -996 -344
-1200 216 l-31 83 -51 1313 -52 1313 28 53 c118 225 373 377 697 416 85 10
269 5 374 -11z m7429 -915 c437 -113 771 -620 726 -1104 -11 -118 -32 -198
-79 -295 -123 -258 -366 -422 -727 -494 -503 -99 -922 75 -1114 464 -78 159
-93 227 -93 435 0 149 3 187 22 255 58 209 194 410 360 534 268 198 622 278
905 205z m-1168 -161 c-144 -145 -254 -348 -307 -568 -19 -75 -22 -119 -22
-270 0 -162 3 -190 26 -283 91 -351 318 -621 635 -753 45 -19 83 -36 83 -39 0
-3 -609 -157 -1352 -343 -1459 -364 -1380 -348 -1576 -326 -361 39 -642 153
-825 334 -198 196 -261 457 -175 733 82 268 326 547 659 753 117 73 333 174
399 188 757 151 1477 326 2162 525 178 51 327 94 331 95 5 0 -12 -20 -38 -46z
m12299 -1111 c60 -40 134 -86 165 -101 87 -44 219 -88 306 -101 44 -7 93 -16
109 -19 28 -6 -16 -51 -1084 -1106 -612 -605 -1172 -1165 -1245 -1245 -364
-401 -844 -744 -1325 -948 -97 -41 -167 -55 -423 -87 -203 -25 -456 -38 -597
-31 -133 6 -315 27 -325 37 -2 3 132 293 300 645 l304 639 183 0 c184 1 229 4
458 31 120 15 129 17 215 66 201 114 533 347 750 527 319 263 702 632 1229
1181 l331 345 71 180 c39 99 87 226 105 282 l33 102 165 -162 c121 -119 195
-182 275 -235z m1037 -233 c444 -241 653 -412 895 -734 74 -97 159 -224 153
-228 -2 -2 -101 -51 -219 -110 -495 -245 -901 -555 -1430 -1093 -383 -389
-643 -698 -1340 -1584 -574 -731 -678 -850 -860 -988 -224 -168 -545 -332
-850 -432 -439 -145 -819 -184 -1110 -114 -176 43 -395 195 -558 389 l-76 90
65 2 c547 18 959 123 1404 357 287 151 838 510 1095 714 172 136 452 433 508
539 26 48 7 115 -39 139 -65 33 -101 14 -191 -105 -89 -116 -269 -299 -398
-402 -261 -210 -819 -571 -1109 -718 -429 -218 -818 -311 -1298 -311 l-164 0
-28 63 c-129 285 -145 607 -42 877 34 90 24 85 146 66 322 -50 688 -39 1173
35 116 18 149 28 268 79 479 208 929 526 1313 926 72 76 131 140 131 143 0 4
543 542 1206 1196 863 852 1207 1197 1211 1217 3 17 13 28 27 31 11 2 21 5 22
6 1 0 43 -22 95 -50z m582 -1736 l248 -118 -108 -11 c-788 -84 -1418 -537
-1798 -1293 -162 -324 -266 -689 -317 -1116 -18 -154 -15 -634 5 -785 8 -63
13 -118 11 -121 -2 -4 -23 -9 -46 -13 -70 -11 -316 -73 -434 -110 -465 -144
-952 -390 -1347 -679 -37 -27 -69 -48 -71 -46 -6 7 -266 641 -268 656 -2 10
45 33 146 73 273 109 582 283 771 435 166 132 333 327 895 1045 728 929 1151
1413 1563 1789 177 161 478 410 497 411 3 0 117 -53 253 -117z m-13933 -489
c146 -179 274 -333 285 -344 11 -10 151 -71 310 -135 597 -242 853 -389 1077
-623 224 -233 333 -504 354 -882 14 -251 -36 -471 -142 -631 -53 -80 -110
-129 -201 -172 -64 -30 -75 -32 -178 -32 -129 0 -195 18 -345 96 -121 62 -229
143 -405 306 -393 361 -648 521 -1333 838 l-304 140 -53 155 c-65 192 -91 254
-166 402 -108 211 -252 411 -426 589 l-65 66 74 31 c40 17 319 132 620 256
300 124 561 234 580 246 18 11 38 20 43 19 6 0 129 -146 275 -325z m-1708
-411 c420 -404 644 -922 744 -1723 22 -183 16 -440 -15 -554 -60 -225 -193
-374 -370 -416 -80 -19 -229 -8 -318 23 -212 75 -428 239 -611 466 -42 53
-297 366 -566 696 -269 330 -504 618 -522 640 l-33 41 144 193 143 193 111 45
c60 24 348 143 638 263 290 120 536 219 546 219 10 1 59 -38 109 -86z m-4162
-1565 c435 -303 789 -556 787 -561 -9 -29 -334 -465 -343 -462 -18 5 -1564
1187 -1564 1194 0 13 310 381 320 381 5 0 366 -248 800 -552z m-482 -590 c477
-363 882 -671 899 -682 18 -12 33 -24 33 -28 0 -3 -28 -41 -63 -85 -107 -132
-280 -370 -567 -778 -297 -423 -481 -674 -528 -719 l-30 -28 -244 170 c-408
284 -895 615 -1276 866 -199 132 -362 242 -362 246 0 4 48 66 107 136 371 448
751 959 1042 1401 58 89 110 162 114 163 4 0 398 -298 875 -662z m18396 -715
c35 -144 124 -407 176 -520 l39 -83 -1196 -796 c-658 -437 -1201 -796 -1206
-797 -24 -4 -40 156 -41 398 0 214 2 251 22 345 70 321 200 552 446 794 199
195 630 433 1081 598 193 71 563 174 635 177 12 1 23 -28 44 -116z m-20204
-850 c129 -91 431 -303 670 -471 239 -168 439 -309 444 -313 5 -5 -78 -99
-190 -215 -480 -498 -794 -852 -1023 -1154 -91 -118 -230 -323 -272 -397 -13
-24 -26 -43 -29 -43 -4 0 -793 619 -807 633 -1 2 29 62 68 133 307 558 673
1368 870 1927 13 37 26 67 29 67 3 0 111 -75 240 -167z m-757 -2595 l67 -48
-96 -277 c-53 -153 -117 -339 -142 -413 l-47 -135 -655 -377 c-360 -207 -656
-375 -658 -373 -3 2 894 1676 1024 1912 l34 61 203 -151 c112 -84 233 -173
270 -199z"/>
<path d="M28230 18492 c-263 -74 -417 -330 -367 -609 38 -208 176 -358 363
-392 79 -15 128 -14 220 5 308 62 479 316 408 603 -36 143 -111 249 -239 338
-93 64 -265 88 -385 55z"/>
<path d="M36116 12684 c-196 -26 -406 -106 -553 -210 -199 -141 -372 -375
-466 -629 -75 -205 -92 -312 -92 -585 1 -206 3 -248 23 -340 137 -631 546
-1023 1092 -1047 75 -3 166 -3 203 1 l67 8 65 115 c36 63 65 116 65 118 0 1
-28 -4 -62 -12 -35 -7 -133 -16 -218 -20 -125 -5 -172 -2 -240 11 -289 59
-518 247 -659 541 -154 322 -179 739 -65 1090 165 506 568 786 1099 762 130
-6 278 -34 381 -73 219 -82 424 -231 556 -405 29 -38 55 -69 59 -69 12 0 87
215 80 228 -4 8 -47 53 -95 102 -323 325 -778 477 -1240 414z"/>
</g>
</svg>
